<svg width="20" height="20" viewBox="0 0 20 20" fill="none" xmlns="http://www.w3.org/2000/svg">
<path d="M1.66663 6.66666V10.0008H2.49996V15H1.66663V17.5H15L17.5 17.5008V17.5H18.3333V15H17.5V10.0008H18.3333V6.66666L9.99996 1.66666L1.66663 6.66666ZM4.99996 15V10.0008H6.66663V15H4.99996ZM9.16663 15V10.0008H10.8333V15H9.16663ZM15 15H13.3333V10.0008H15V15ZM11.6666 6.66666C11.6666 6.88558 11.6234 7.10235 11.5396 7.30459C11.4557 7.50683 11.3329 7.69058 11.1781 7.84534C11.0232 8.00011 10.8394 8.12286 10.6371 8.20658C10.4348 8.29031 10.2181 8.33338 9.99913 8.33332C9.7802 8.33327 9.56343 8.29009 9.36119 8.20626C9.15895 8.12244 8.97521 7.99959 8.82044 7.84475C8.66568 7.68991 8.54293 7.5061 8.4592 7.30382C8.37547 7.10154 8.3324 6.88475 8.33246 6.66582C8.33257 6.22369 8.50831 5.7997 8.82103 5.48714C9.13375 5.17458 9.55782 4.99905 9.99996 4.99916C10.4421 4.99927 10.8661 5.17501 11.1786 5.48773C11.4912 5.80045 11.6667 6.22452 11.6666 6.66666Z" fill="white"/>
</svg>
